<svg xmlns="http://www.w3.org/2000/svg" width="172.971" height="225.497" viewBox="0 0 172.971 225.497">
  <g id="Ghostery_disabled" data-name="Ghostery disabled" transform="translate(-137.998 -100)">
    <path id="Fill-3" d="M40.39,21.241h7.388V31.678c0,5.265-2.687,8.274-7.868,8.274s-7.866-3.009-7.866-8.274V14.566c0-5.266,2.686-8.274,7.866-8.274s7.868,3.007,7.868,8.274v3.2H42.788V14.236c0-2.35-1.055-3.243-2.734-3.243s-2.735.893-2.735,3.243V32.007c0,2.351,1.055,3.2,2.735,3.2s2.734-.846,2.734-3.2V25.943h-2.4v-4.7" transform="translate(105.957 285.544)" fill="#fff"/>
    <path id="Fill-4" d="M47.366,39.4H42.09V6.489h5.276v14.1h6V6.489h5.373V39.4H53.361v-14.1h-6V39.4" transform="translate(115.051 285.723)" fill="#fff"/>
    <path id="Fill-5" d="M52.614,14.566c0-5.265,2.831-8.274,8.011-8.274s8.011,3.009,8.011,8.274V31.678c0,5.265-2.829,8.275-8.011,8.275s-8.011-3.01-8.011-8.275ZM57.89,32.008c0,2.351,1.057,3.245,2.735,3.245s2.734-.894,2.734-3.245V14.236c0-2.35-1.054-3.244-2.734-3.244s-2.735.893-2.735,3.244V32.008Z" transform="translate(124.578 285.544)" fill="#fff"/>
    <path id="Fill-6" d="M70.3,6.292c5.133,0,7.772,3.01,7.772,8.275V15.6H73.082V14.237c0-2.35-.96-3.243-2.64-3.243s-2.639.893-2.639,3.243c0,6.769,10.315,8.039,10.315,17.442,0,5.266-2.685,8.274-7.867,8.274s-7.867-3.008-7.867-8.274V29.657h4.989v2.35c0,2.35,1.056,3.2,2.735,3.2s2.733-.846,2.733-3.2c0-6.771-10.312-8.04-10.312-17.441,0-5.265,2.638-8.275,7.772-8.275" transform="translate(133.421 285.544)" fill="#fff"/>
    <path id="Fill-7" d="M71.209,6.489H87.518v4.7H82V39.4H76.726V11.191H71.209v-4.7" transform="translate(141.411 285.723)" fill="#fff"/>
    <path id="Fill-8" d="M86.468,20.358h7.244v4.7H86.468V34.7h9.115v4.7H81.193V6.489h14.39v4.7H86.468v9.167" transform="translate(150.448 285.723)" fill="#fff"/>
    <path id="Fill-9" d="M101.491,39.4a9.961,9.961,0,0,1-.48-4.042V30.183c0-3.056-1.055-4.184-3.455-4.184H95.735V39.4H90.459V6.489h7.963c5.468,0,7.82,2.492,7.82,7.569v2.586c0,3.383-1.1,5.594-3.455,6.674,2.637,1.081,3.5,3.573,3.5,7V35.4a9.52,9.52,0,0,0,.575,4ZM95.735,11.191V21.3H97.8c1.968,0,3.165-.845,3.165-3.479V14.574c0-2.351-.814-3.384-2.684-3.384Z" transform="translate(158.835 285.723)" fill="#fff"/>
    <path id="Fill-10" d="M106.09,28.491l-6.668-22h5.515l4.033,15,4.028-15h5.037l-6.668,22V39.4H106.09V28.491" transform="translate(166.949 285.723)" fill="#fff"/>
    <path id="Fill-11" d="M111.73,6.479a1.9,1.9,0,0,1,1.941,1.959,1.944,1.944,0,1,1-3.889,0,1.9,1.9,0,0,1,1.947-1.959Zm0,3.535a1.513,1.513,0,0,0,1.539-1.576,1.542,1.542,0,1,0-3.083,0,1.514,1.514,0,0,0,1.543,1.576Zm.278-.406a.708.708,0,0,1-.04-.328V9.028c0-.252-.09-.339-.284-.339h-.145v.918h-.425V7.266h.646c.438,0,.634.2.634.613v.049a.519.519,0,0,1-.293.541c.219.087.293.285.293.565v.251a.72.72,0,0,0,.05.322ZM111.54,7.65v.656h.17c.16,0,.259-.066.259-.279v-.1c0-.191-.069-.279-.229-.279Z" transform="translate(176.328 285.713)" fill="#fff"/>
    <path id="Fill-1" d="M107.847,55.392A51.492,51.492,0,1,1,56.355,3.9a51.492,51.492,0,0,1,51.492,51.492" transform="translate(158.277 116.261)" fill="#fffffe"/>
    <path id="Subtraction_1" data-name="Subtraction 1" d="M2448.656,171.1h0a16.669,16.669,0,0,1-6.43-1.494c-13.517-5.676-17.183-6.288-18.132-6.288h-2.182c-.948,0-4.614.613-18.133,6.288a16.67,16.67,0,0,1-6.43,1.494,10.246,10.246,0,0,1-7.787-3.631,45.716,45.716,0,0,1-5.675-8.423l-.168-.292c-1.582-2.74-4.384-4.071-8.566-4.071-4.662,0-10.07,1.673-14.415,3.017-1.53.473-2.974.92-4.142,1.212l-.6.152a23.921,23.921,0,0,1-5.356.961,3.311,3.311,0,0,1-3.029-1.31c-.7-1.078-.8-2.825-.29-5.341a58.293,58.293,0,0,1,3.98-11.286,99.55,99.55,0,0,0,8.611-34.927V61.816a60.369,60.369,0,0,1,4.957-24.062,61.559,61.559,0,0,1,13.519-19.649,62.959,62.959,0,0,1,20.051-13.247,64.477,64.477,0,0,1,49.1,0,62.955,62.955,0,0,1,20.049,13.247,61.557,61.557,0,0,1,13.518,19.649,60.374,60.374,0,0,1,4.957,24.062V98.025a41.5,41.5,0,0,0-29.422,69.225C2454.244,169.874,2451.706,171.1,2448.656,171.1Zm-57.038-91.632h0c3.5,14.789,15.679,30.507,31.373,30.507s27.875-15.719,31.37-30.508a41.994,41.994,0,0,1-6.208,6.706,39.942,39.942,0,0,1-7.46,5.117,37.733,37.733,0,0,1-35.406,0,39.944,39.944,0,0,1-7.46-5.117A42,42,0,0,1,2391.617,79.464Zm50.841-45.757c-3.288,0-6.379,1.984-8.7,5.588a25.162,25.162,0,0,0-3.6,13.492,25.166,25.166,0,0,0,3.6,13.493c2.324,3.6,5.415,5.589,8.7,5.589s6.377-1.985,8.7-5.589a25.171,25.171,0,0,0,3.6-13.493,25.167,25.167,0,0,0-3.6-13.492C2448.836,35.692,2445.746,33.708,2442.459,33.708Zm-38.939,0c-6.784,0-12.3,8.559-12.3,19.08s5.519,19.082,12.3,19.082,12.3-8.56,12.3-19.082a25.162,25.162,0,0,0-3.6-13.492C2409.895,35.692,2406.805,33.708,2403.519,33.708Z" transform="translate(-2209 100)" fill="#00aef0"/>
    <path id="Path_4" data-name="Path 4" d="M0-56.719A31.963,31.963,0,0,0-31.969-24.75,31.963,31.963,0,0,0,0,7.219,31.963,31.963,0,0,0,31.969-24.75,31.963,31.963,0,0,0,0-56.719Zm15.675,40.36a1.548,1.548,0,0,1,0,2.191l-5.1,5.092a1.548,1.548,0,0,1-2.191,0L0-17.531-8.392-9.075a1.548,1.548,0,0,1-2.191,0l-5.092-5.1a1.548,1.548,0,0,1,0-2.191l8.456-8.379-8.456-8.392a1.548,1.548,0,0,1,0-2.191l5.1-5.1a1.548,1.548,0,0,1,2.191,0L0-31.969l8.392-8.456a1.548,1.548,0,0,1,2.191,0l5.1,5.1a1.548,1.548,0,0,1,0,2.191L7.219-24.75Z" transform="translate(279 265)" fill="#ff4500"/>
  </g>
</svg>
